<?xml version="1.0" encoding="UTF-8"?>
<!--Generator: Apple Native CoreSVG 123-->
<!DOCTYPE svg
PUBLIC "-//W3C//DTD SVG 1.1//EN"
       "http://www.w3.org/Graphics/SVG/1.1/DTD/svg11.dtd">
<svg version="1.1" xmlns="http://www.w3.org/2000/svg" xmlns:xlink="http://www.w3.org/1999/xlink" width="3300" height="2200">
 <!--glyph: "uni1002D6.medium", point size: 100.000000, font version: "Version 15.0d7e11", template writer version: "5"-->
 <g id="Notes">
  <rect height="2200" id="artboard" style="fill:white;opacity:1" width="3300" x="0" y="0"/>
  <line id="" style="fill:none;stroke:black;opacity:1;stroke-width:0.5;" x1="263" x2="3036" y1="292" y2="292"/>
  <text style="stroke:none;fill:black;font-family:-apple-system,&quot;SF Pro Display&quot;,&quot;SF Pro Text&quot;,Helvetica,sans-serif;font-weight:bold;" transform="matrix(1 0 0 1 263 322)">Weight/Scale Variations</text>
  <text style="stroke:none;fill:black;font-family:-apple-system,&quot;SF Pro Display&quot;,&quot;SF Pro Text&quot;,Helvetica,sans-serif;text-anchor:middle;" transform="matrix(1 0 0 1 559.711 322)">Ultralight</text>
  <text style="stroke:none;fill:black;font-family:-apple-system,&quot;SF Pro Display&quot;,&quot;SF Pro Text&quot;,Helvetica,sans-serif;text-anchor:middle;" transform="matrix(1 0 0 1 856.422 322)">Thin</text>
  <text style="stroke:none;fill:black;font-family:-apple-system,&quot;SF Pro Display&quot;,&quot;SF Pro Text&quot;,Helvetica,sans-serif;text-anchor:middle;" transform="matrix(1 0 0 1 1153.13 322)">Light</text>
  <text style="stroke:none;fill:black;font-family:-apple-system,&quot;SF Pro Display&quot;,&quot;SF Pro Text&quot;,Helvetica,sans-serif;text-anchor:middle;" transform="matrix(1 0 0 1 1449.84 322)">Regular</text>
  <text style="stroke:none;fill:black;font-family:-apple-system,&quot;SF Pro Display&quot;,&quot;SF Pro Text&quot;,Helvetica,sans-serif;text-anchor:middle;" transform="matrix(1 0 0 1 1746.56 322)">Medium</text>
  <text style="stroke:none;fill:black;font-family:-apple-system,&quot;SF Pro Display&quot;,&quot;SF Pro Text&quot;,Helvetica,sans-serif;text-anchor:middle;" transform="matrix(1 0 0 1 2043.27 322)">Semibold</text>
  <text style="stroke:none;fill:black;font-family:-apple-system,&quot;SF Pro Display&quot;,&quot;SF Pro Text&quot;,Helvetica,sans-serif;text-anchor:middle;" transform="matrix(1 0 0 1 2339.98 322)">Bold</text>
  <text style="stroke:none;fill:black;font-family:-apple-system,&quot;SF Pro Display&quot;,&quot;SF Pro Text&quot;,Helvetica,sans-serif;text-anchor:middle;" transform="matrix(1 0 0 1 2636.69 322)">Heavy</text>
  <text style="stroke:none;fill:black;font-family:-apple-system,&quot;SF Pro Display&quot;,&quot;SF Pro Text&quot;,Helvetica,sans-serif;text-anchor:middle;" transform="matrix(1 0 0 1 2933.4 322)">Black</text>
  <line id="" style="fill:none;stroke:black;opacity:1;stroke-width:0.5;" x1="263" x2="3036" y1="1903" y2="1903"/>
  <g id="" transform="matrix(1 0 0 1 263 1933)">
   <path d="M 9.24805 0.830078 C 13.5547 0.830078 17.1387 -2.74414 17.1387 -7.05078 C 17.1387 -11.3574 13.5449 -14.9316 9.23828 -14.9316 C 4.94141 -14.9316 1.36719 -11.3574 1.36719 -7.05078 C 1.36719 -2.74414 4.95117 0.830078 9.24805 0.830078 Z M 9.24805 -0.654297 C 5.70312 -0.654297 2.87109 -3.49609 2.87109 -7.05078 C 2.87109 -10.6055 5.69336 -13.4473 9.23828 -13.4473 C 12.793 -13.4473 15.6348 -10.6055 15.6445 -7.05078 C 15.6543 -3.49609 12.8027 -0.654297 9.24805 -0.654297 Z M 9.22852 -3.42773 C 9.69727 -3.42773 9.9707 -3.74023 9.9707 -4.25781 L 9.9707 -6.31836 L 12.1973 -6.31836 C 12.6953 -6.31836 13.0371 -6.57227 13.0371 -7.04102 C 13.0371 -7.51953 12.7148 -7.7832 12.1973 -7.7832 L 9.9707 -7.7832 L 9.9707 -10.0098 C 9.9707 -10.5273 9.69727 -10.8496 9.22852 -10.8496 C 8.75977 -10.8496 8.50586 -10.5078 8.50586 -10.0098 L 8.50586 -7.7832 L 6.29883 -7.7832 C 5.78125 -7.7832 5.44922 -7.51953 5.44922 -7.04102 C 5.44922 -6.57227 5.80078 -6.31836 6.29883 -6.31836 L 8.50586 -6.31836 L 8.50586 -4.25781 C 8.50586 -3.75977 8.75977 -3.42773 9.22852 -3.42773 Z"/>
  </g>
  <g id="" transform="matrix(1 0 0 1 281.506 1933)">
   <path d="M 11.709 2.91016 C 17.1582 2.91016 21.6699 -1.60156 21.6699 -7.05078 C 21.6699 -12.4902 17.1484 -17.0117 11.6992 -17.0117 C 6.25977 -17.0117 1.74805 -12.4902 1.74805 -7.05078 C 1.74805 -1.60156 6.26953 2.91016 11.709 2.91016 Z M 11.709 1.25 C 7.09961 1.25 3.41797 -2.44141 3.41797 -7.05078 C 3.41797 -11.6504 7.08984 -15.3516 11.6992 -15.3516 C 16.3086 -15.3516 20 -11.6504 20.0098 -7.05078 C 20.0195 -2.44141 16.3184 1.25 11.709 1.25 Z M 11.6895 -2.41211 C 12.207 -2.41211 12.5195 -2.77344 12.5195 -3.33984 L 12.5195 -6.23047 L 15.5762 -6.23047 C 16.123 -6.23047 16.5039 -6.51367 16.5039 -7.03125 C 16.5039 -7.55859 16.1426 -7.86133 15.5762 -7.86133 L 12.5195 -7.86133 L 12.5195 -10.9277 C 12.5195 -11.5039 12.207 -11.8555 11.6895 -11.8555 C 11.1719 -11.8555 10.8789 -11.4844 10.8789 -10.9277 L 10.8789 -7.86133 L 7.83203 -7.86133 C 7.26562 -7.86133 6.89453 -7.55859 6.89453 -7.03125 C 6.89453 -6.51367 7.28516 -6.23047 7.83203 -6.23047 L 10.8789 -6.23047 L 10.8789 -3.33984 C 10.8789 -2.79297 11.1719 -2.41211 11.6895 -2.41211 Z"/>
  </g>
  <g id="" transform="matrix(1 0 0 1 304.924 1933)">
   <path d="M 14.9707 5.67383 C 21.9336 5.67383 27.6953 -0.078125 27.6953 -7.04102 C 27.6953 -14.0039 21.9238 -19.7559 14.9609 -19.7559 C 8.00781 -19.7559 2.25586 -14.0039 2.25586 -7.04102 C 2.25586 -0.078125 8.01758 5.67383 14.9707 5.67383 Z M 14.9707 3.85742 C 8.93555 3.85742 4.08203 -1.00586 4.08203 -7.04102 C 4.08203 -13.0762 8.92578 -17.9395 14.9609 -17.9395 C 21.0059 -17.9395 25.8594 -13.0762 25.8691 -7.04102 C 25.8789 -1.00586 21.0156 3.85742 14.9707 3.85742 Z M 14.9512 -1.06445 C 15.5176 -1.06445 15.8691 -1.45508 15.8691 -2.06055 L 15.8691 -6.13281 L 20.1074 -6.13281 C 20.6934 -6.13281 21.1133 -6.46484 21.1133 -7.02148 C 21.1133 -7.59766 20.7227 -7.93945 20.1074 -7.93945 L 15.8691 -7.93945 L 15.8691 -12.1875 C 15.8691 -12.8027 15.5176 -13.1934 14.9512 -13.1934 C 14.3848 -13.1934 14.0625 -12.7832 14.0625 -12.1875 L 14.0625 -7.93945 L 9.83398 -7.93945 C 9.21875 -7.93945 8.80859 -7.59766 8.80859 -7.02148 C 8.80859 -6.46484 9.23828 -6.13281 9.83398 -6.13281 L 14.0625 -6.13281 L 14.0625 -2.06055 C 14.0625 -1.47461 14.3848 -1.06445 14.9512 -1.06445 Z"/>
  </g>
  <text style="stroke:none;fill:black;font-family:-apple-system,&quot;SF Pro Display&quot;,&quot;SF Pro Text&quot;,Helvetica,sans-serif;font-weight:bold;" transform="matrix(1 0 0 1 263 1953)">Design Variations</text>
  <text style="stroke:none;fill:black;font-family:-apple-system,&quot;SF Pro Display&quot;,&quot;SF Pro Text&quot;,Helvetica,sans-serif;" transform="matrix(1 0 0 1 263 1971)">Symbols are supported in up to nine weights and three scales.</text>
  <text style="stroke:none;fill:black;font-family:-apple-system,&quot;SF Pro Display&quot;,&quot;SF Pro Text&quot;,Helvetica,sans-serif;" transform="matrix(1 0 0 1 263 1989)">For optimal layout with text and other symbols, vertically align</text>
  <text style="stroke:none;fill:black;font-family:-apple-system,&quot;SF Pro Display&quot;,&quot;SF Pro Text&quot;,Helvetica,sans-serif;" transform="matrix(1 0 0 1 263 2007)">symbols with the adjacent text.</text>
  <rect height="14" id="" style="fill:#00AEEF;stroke:none;opacity:0.4;" width="3" x="776" y="1919"/>
  <g id="" transform="matrix(1 0 0 1 779 1933)">
   <path d="M 10.5273 0 L 12.373 0 L 7.17773 -14.0918 L 5.43945 -14.0918 L 0.244141 0 L 2.08984 0 L 3.50586 -4.0332 L 9.11133 -4.0332 Z M 6.2793 -11.9531 L 6.33789 -11.9531 L 8.59375 -5.52734 L 4.02344 -5.52734 Z"/>
  </g>
  <rect height="14" id="" style="fill:#00AEEF;stroke:none;opacity:0.4;" width="3" x="791.617" y="1919"/>
  <text style="stroke:none;fill:black;font-family:-apple-system,&quot;SF Pro Display&quot;,&quot;SF Pro Text&quot;,Helvetica,sans-serif;font-weight:bold;" transform="matrix(1 0 0 1 776 1953)">Margins</text>
  <text style="stroke:none;fill:black;font-family:-apple-system,&quot;SF Pro Display&quot;,&quot;SF Pro Text&quot;,Helvetica,sans-serif;" transform="matrix(1 0 0 1 776 1971)">Leading and trailing margins on the left and right side of each symbol</text>
  <text style="stroke:none;fill:black;font-family:-apple-system,&quot;SF Pro Display&quot;,&quot;SF Pro Text&quot;,Helvetica,sans-serif;" transform="matrix(1 0 0 1 776 1989)">can be adjusted by modifying the width of the blue rectangles.</text>
  <text style="stroke:none;fill:black;font-family:-apple-system,&quot;SF Pro Display&quot;,&quot;SF Pro Text&quot;,Helvetica,sans-serif;" transform="matrix(1 0 0 1 776 2007)">Modifications are automatically applied proportionally to all</text>
  <text style="stroke:none;fill:black;font-family:-apple-system,&quot;SF Pro Display&quot;,&quot;SF Pro Text&quot;,Helvetica,sans-serif;" transform="matrix(1 0 0 1 776 2025)">scales and weights.</text>
  <g id="" transform="matrix(1 0 0 1 1289 1933)">
   <path d="M 2.83203 3.11523 L 4.375 4.6582 C 5.22461 5.48828 6.19141 5.41992 7.06055 4.46289 L 17.2754 -6.66016 C 17.7051 -6.36719 18.0957 -6.37695 18.5645 -6.47461 L 19.6094 -6.68945 L 20.3027 -5.99609 L 20.2539 -5.47852 C 20.1855 -4.95117 20.3516 -4.53125 20.8496 -4.0332 L 21.6602 -3.22266 C 22.168 -2.71484 22.8223 -2.68555 23.3008 -3.16406 L 26.5527 -6.41602 C 27.0312 -6.89453 27.0117 -7.54883 26.5039 -8.05664 L 25.6836 -8.87695 C 25.1855 -9.375 24.7754 -9.55078 24.2383 -9.47266 L 23.7109 -9.41406 L 23.0566 -10.0781 L 23.3398 -11.2207 C 23.4863 -11.7871 23.3398 -12.2559 22.7148 -12.8613 L 20.3027 -15.2539 C 16.7578 -18.7793 12.2266 -18.6719 9.11133 -15.5371 C 8.69141 -15.1074 8.64258 -14.5215 8.91602 -14.0918 C 9.15039 -13.7207 9.62891 -13.4961 10.2734 -13.6621 C 11.7871 -14.043 13.3008 -13.9258 14.7852 -12.9199 L 14.1602 -11.3379 C 13.9258 -10.752 13.9453 -10.2734 14.1797 -9.83398 L 3.01758 0.439453 C 2.08008 1.30859 1.97266 2.25586 2.83203 3.11523 Z M 10.6738 -15.1465 C 13.3398 -17.1387 16.6504 -16.8262 19.0527 -14.4141 L 21.6797 -11.8066 C 21.9141 -11.5723 21.9434 -11.3867 21.8848 -11.0938 L 21.5039 -9.53125 L 23.0762 -7.95898 L 24.043 -8.04688 C 24.3262 -8.07617 24.4141 -8.05664 24.6387 -7.83203 L 25.2637 -7.20703 L 22.5098 -4.46289 L 21.8848 -5.07812 C 21.6602 -5.30273 21.6406 -5.40039 21.6699 -5.68359 L 21.7578 -6.64062 L 20.1953 -8.20312 L 18.5742 -7.89062 C 18.291 -7.83203 18.1445 -7.83203 17.9102 -8.07617 L 15.7324 -10.2539 C 15.5078 -10.4883 15.4785 -10.625 15.6055 -10.9473 L 16.5527 -13.2227 C 14.9512 -14.7559 12.8418 -15.6055 10.8008 -14.9512 C 10.7129 -14.9219 10.6445 -14.9414 10.6152 -14.9805 C 10.5859 -15.0293 10.5859 -15.0781 10.6738 -15.1465 Z M 4.10156 2.41211 C 3.61328 1.91406 3.78906 1.61133 4.12109 1.30859 L 15.0781 -8.80859 L 16.3086 -7.57812 L 6.15234 3.34961 C 5.84961 3.68164 5.46875 3.7793 5.06836 3.37891 Z"/>
  </g>
  <text style="stroke:none;fill:black;font-family:-apple-system,&quot;SF Pro Display&quot;,&quot;SF Pro Text&quot;,Helvetica,sans-serif;font-weight:bold;" transform="matrix(1 0 0 1 1289 1953)">Exporting</text>
  <text style="stroke:none;fill:black;font-family:-apple-system,&quot;SF Pro Display&quot;,&quot;SF Pro Text&quot;,Helvetica,sans-serif;" transform="matrix(1 0 0 1 1289 1971)">Symbols should be outlined when exporting to ensure the</text>
  <text style="stroke:none;fill:black;font-family:-apple-system,&quot;SF Pro Display&quot;,&quot;SF Pro Text&quot;,Helvetica,sans-serif;" transform="matrix(1 0 0 1 1289 1989)">design is preserved when submitting to Xcode.</text>
  <text id="template-version" style="stroke:none;fill:black;font-family:-apple-system,&quot;SF Pro Display&quot;,&quot;SF Pro Text&quot;,Helvetica,sans-serif;text-anchor:end;" transform="matrix(1 0 0 1 3036 1933)">Template v.1.0</text>
  <text style="stroke:none;fill:black;font-family:-apple-system,&quot;SF Pro Display&quot;,&quot;SF Pro Text&quot;,Helvetica,sans-serif;text-anchor:end;" transform="matrix(1 0 0 1 3036 1951)">Generated from location.circle.fill</text>
  <text style="stroke:none;fill:black;font-family:-apple-system,&quot;SF Pro Display&quot;,&quot;SF Pro Text&quot;,Helvetica,sans-serif;text-anchor:end;" transform="matrix(1 0 0 1 3036 1969)">Typeset at 100 points</text>
  <text style="stroke:none;fill:black;font-family:-apple-system,&quot;SF Pro Display&quot;,&quot;SF Pro Text&quot;,Helvetica,sans-serif;" transform="matrix(1 0 0 1 263 726)">Small</text>
  <text style="stroke:none;fill:black;font-family:-apple-system,&quot;SF Pro Display&quot;,&quot;SF Pro Text&quot;,Helvetica,sans-serif;" transform="matrix(1 0 0 1 263 1156)">Medium</text>
  <text style="stroke:none;fill:black;font-family:-apple-system,&quot;SF Pro Display&quot;,&quot;SF Pro Text&quot;,Helvetica,sans-serif;" transform="matrix(1 0 0 1 263 1586)">Large</text>
 </g>
 <g id="Guides">
  <g id="H-reference" style="fill:#27AAE1;stroke:none;" transform="matrix(1 0 0 1 339 696)">
   <path d="M 54.9316 0 L 57.666 0 L 30.5664 -70.459 L 28.0762 -70.459 L 0.976562 0 L 3.66211 0 L 12.9395 -24.4629 L 45.7031 -24.4629 Z M 29.1992 -67.0898 L 29.4434 -67.0898 L 44.8242 -26.709 L 13.8184 -26.709 Z"/>
  </g>
  <line id="Baseline-S" style="fill:none;stroke:#27AAE1;opacity:1;stroke-width:0.577;" x1="263" x2="3036" y1="696" y2="696"/>
  <line id="Capline-S" style="fill:none;stroke:#27AAE1;opacity:1;stroke-width:0.577;" x1="263" x2="3036" y1="625.541" y2="625.541"/>
  <g id="H-reference" style="fill:#27AAE1;stroke:none;" transform="matrix(1 0 0 1 339 1126)">
   <path d="M 54.9316 0 L 57.666 0 L 30.5664 -70.459 L 28.0762 -70.459 L 0.976562 0 L 3.66211 0 L 12.9395 -24.4629 L 45.7031 -24.4629 Z M 29.1992 -67.0898 L 29.4434 -67.0898 L 44.8242 -26.709 L 13.8184 -26.709 Z"/>
  </g>
  <line id="Baseline-M" style="fill:none;stroke:#27AAE1;opacity:1;stroke-width:0.577;" x1="263" x2="3036" y1="1126" y2="1126"/>
  <line id="Capline-M" style="fill:none;stroke:#27AAE1;opacity:1;stroke-width:0.577;" x1="263" x2="3036" y1="1055.54" y2="1055.54"/>
  <g id="H-reference" style="fill:#27AAE1;stroke:none;" transform="matrix(1 0 0 1 339 1556)">
   <path d="M 54.9316 0 L 57.666 0 L 30.5664 -70.459 L 28.0762 -70.459 L 0.976562 0 L 3.66211 0 L 12.9395 -24.4629 L 45.7031 -24.4629 Z M 29.1992 -67.0898 L 29.4434 -67.0898 L 44.8242 -26.709 L 13.8184 -26.709 Z"/>
  </g>
  <line id="Baseline-L" style="fill:none;stroke:#27AAE1;opacity:1;stroke-width:0.577;" x1="263" x2="3036" y1="1556" y2="1556"/>
  <line id="Capline-L" style="fill:none;stroke:#27AAE1;opacity:1;stroke-width:0.577;" x1="263" x2="3036" y1="1485.54" y2="1485.54"/>
  <rect height="119.336" id="left-margin" style="fill:#00AEEF;stroke:none;opacity:0.4;" width="8.74023" x="1391.3" y="1030.79"/>
  <rect height="119.336" id="right-margin" style="fill:#00AEEF;stroke:none;opacity:0.4;" width="8.74023" x="1499.65" y="1030.79"/>
 </g>
 <g id="Symbols">
  <g id="Black-L" transform="matrix(1 0 0 1 2854.05 1556)">
   <path d="M 79.3457 32.9102 C 116.748 32.9102 147.412 2.29492 147.412 -35.1074 C 147.412 -72.5586 116.748 -103.174 79.2969 -103.174 C 41.8945 -103.174 11.2793 -72.5586 11.2793 -35.1074 C 11.2793 2.29492 41.9434 32.9102 79.3457 32.9102 Z M 55.4199 -2.68555 C 52.3438 -2.68555 50 -4.83398 50 -8.34961 C 50 -9.47266 50.293 -10.8398 50.8789 -12.3535 L 72.2168 -66.5039 C 73.7793 -70.3613 76.2207 -72.3633 79.3457 -72.3633 C 82.4707 -72.3633 84.9121 -70.3613 86.4258 -66.5039 L 107.861 -12.3535 C 108.398 -10.8398 108.74 -9.47266 108.74 -8.34961 C 108.74 -4.83398 106.348 -2.68555 103.32 -2.68555 C 101.66 -2.68555 99.7559 -3.4668 97.9492 -5.27344 L 81.0059 -22.2168 C 80.4199 -22.8516 79.8828 -23.0957 79.3457 -23.0957 C 78.8086 -23.0957 78.2227 -22.8516 77.6855 -22.2168 L 60.6934 -5.27344 C 58.9355 -3.4668 57.0312 -2.68555 55.4199 -2.68555 Z"/>
  </g>
  <g id="Heavy-L" transform="matrix(1 0 0 1 2558.39 1556)">
   <path d="M 78.2715 31.8848 C 115.088 31.8848 145.312 1.66016 145.312 -35.1074 C 145.312 -71.9238 115.039 -102.148 78.2715 -102.148 C 41.4551 -102.148 11.2793 -71.9238 11.2793 -35.1074 C 11.2793 1.66016 41.5039 31.8848 78.2715 31.8848 Z M 54.1016 -2.73438 C 51.3672 -2.73438 49.3164 -4.63867 49.3164 -7.71484 C 49.3164 -8.74023 49.5605 -9.96094 50.0977 -11.2305 L 71.9727 -66.9922 C 73.3887 -70.459 75.5371 -72.168 78.3203 -72.168 C 81.0547 -72.168 83.252 -70.459 84.5703 -66.9922 L 106.543 -11.2305 C 107.031 -9.96094 107.275 -8.74023 107.275 -7.71484 C 107.275 -4.63867 105.225 -2.73438 102.49 -2.73438 C 101.074 -2.73438 99.4141 -3.41797 97.9004 -4.93164 L 79.9316 -22.9004 C 79.3457 -23.5352 78.8086 -23.7793 78.3203 -23.7793 C 77.7832 -23.7793 77.2461 -23.5352 76.709 -22.9004 L 58.6426 -4.93164 C 57.1777 -3.41797 55.5664 -2.73438 54.1016 -2.73438 Z"/>
  </g>
  <g id="Bold-L" transform="matrix(1 0 0 1 2262.88 1556)">
   <path d="M 77.0996 30.7129 C 113.232 30.7129 142.92 0.976562 142.92 -35.1074 C 142.92 -71.2402 113.184 -100.977 77.0508 -100.977 C 40.9668 -100.977 11.2793 -71.2402 11.2793 -35.1074 C 11.2793 0.976562 41.0156 30.7129 77.0996 30.7129 Z M 52.6367 -2.7832 C 50.293 -2.7832 48.5352 -4.39453 48.5352 -7.03125 C 48.5352 -7.91016 48.7793 -8.93555 49.2188 -10.0098 L 71.7285 -67.5293 C 72.9004 -70.5078 74.707 -71.9727 77.1484 -71.9727 C 79.4922 -71.9727 81.3477 -70.5078 82.4707 -67.5293 L 105.029 -10.0098 C 105.469 -8.93555 105.713 -7.91016 105.713 -7.03125 C 105.713 -4.39453 103.955 -2.7832 101.611 -2.7832 C 100.391 -2.7832 99.0234 -3.32031 97.8516 -4.54102 L 78.6621 -23.7305 C 78.125 -24.2676 77.6367 -24.5605 77.1484 -24.5605 C 76.6113 -24.5605 76.123 -24.2676 75.5859 -23.7305 L 56.3477 -4.54102 C 55.1758 -3.32031 53.8574 -2.7832 52.6367 -2.7832 Z"/>
  </g>
  <g id="Semibold-L" transform="matrix(1 0 0 1 1966.97 1556)">
   <path d="M 76.2695 29.8828 C 111.914 29.8828 141.309 0.488281 141.309 -35.1074 C 141.309 -70.752 111.865 -100.146 76.2695 -100.146 C 40.625 -100.146 11.2793 -70.752 11.2793 -35.1074 C 11.2793 0.488281 40.6738 29.8828 76.2695 29.8828 Z M 51.6113 -2.83203 C 49.5117 -2.83203 47.998 -4.24805 47.998 -6.54297 C 47.998 -7.37305 48.2422 -8.25195 48.584 -9.17969 L 71.5332 -67.9199 C 72.5586 -70.5566 74.1699 -71.8262 76.3184 -71.8262 C 78.418 -71.8262 80.0293 -70.5566 81.0547 -67.9199 L 104.004 -9.17969 C 104.395 -8.25195 104.59 -7.37305 104.59 -6.54297 C 104.59 -4.24805 103.076 -2.83203 101.025 -2.83203 C 99.9512 -2.83203 98.7305 -3.27148 97.8027 -4.24805 L 77.7832 -24.2676 C 77.2461 -24.8047 76.8066 -25.0977 76.3184 -25.0977 C 75.8301 -25.0977 75.3418 -24.8047 74.8535 -24.2676 L 54.7852 -4.24805 C 53.8086 -3.27148 52.6855 -2.83203 51.6113 -2.83203 Z"/>
  </g>
  <g id="Medium-L" transform="matrix(1 0 0 1 1670.87 1556)">
   <path d="M 75.6836 29.248 C 110.938 29.248 140.088 0.146484 140.088 -35.1074 C 140.088 -70.4102 110.889 -99.5117 75.6348 -99.5117 C 40.3809 -99.5117 11.2793 -70.4102 11.2793 -35.1074 C 11.2793 0.146484 40.3809 29.248 75.6836 29.248 Z M 50.8301 -2.83203 C 48.9746 -2.83203 47.6074 -4.15039 47.6074 -6.20117 C 47.6074 -6.93359 47.8027 -7.71484 48.1445 -8.54492 L 71.3867 -68.2129 C 72.3145 -70.5566 73.7793 -71.7285 75.7324 -71.7285 C 77.6367 -71.7285 79.0527 -70.5566 79.9805 -68.2129 L 103.223 -8.54492 C 103.564 -7.71484 103.76 -6.93359 103.76 -6.20117 C 103.76 -4.15039 102.441 -2.83203 100.537 -2.83203 C 99.5605 -2.83203 98.5352 -3.22266 97.7539 -4.05273 L 77.1484 -24.6582 C 76.6113 -25.1953 76.1719 -25.4883 75.7324 -25.4883 C 75.2441 -25.4883 74.7559 -25.1953 74.2676 -24.6582 L 53.5645 -4.05273 C 52.7832 -3.22266 51.8066 -2.83203 50.8301 -2.83203 Z"/>
  </g>
  <g id="Regular-L" transform="matrix(1 0 0 1 1374.97 1556)">
   <path d="M 74.8535 28.4668 C 109.668 28.4668 138.477 -0.341797 138.477 -35.1074 C 138.477 -69.9219 109.619 -98.7305 74.8047 -98.7305 C 40.0391 -98.7305 11.2793 -69.9219 11.2793 -35.1074 C 11.2793 -0.341797 40.0879 28.4668 74.8535 28.4668 Z M 49.8535 -2.88086 C 48.1934 -2.88086 47.1191 -4.00391 47.1191 -5.71289 C 47.1191 -6.39648 47.2656 -7.03125 47.5586 -7.71484 L 71.1914 -68.5547 C 72.0215 -70.6055 73.2422 -71.582 74.9023 -71.582 C 76.5625 -71.582 77.7832 -70.6055 78.5156 -68.5547 L 102.246 -7.71484 C 102.49 -7.03125 102.686 -6.39648 102.686 -5.71289 C 102.686 -4.00391 101.562 -2.88086 99.9512 -2.88086 C 99.1211 -2.88086 98.291 -3.17383 97.7051 -3.75977 L 76.2695 -25.1953 C 75.7812 -25.7324 75.3418 -25.9766 74.9023 -25.9766 C 74.4629 -25.9766 73.9746 -25.7324 73.4863 -25.1953 L 52.002 -3.75977 C 51.4648 -3.17383 50.6836 -2.88086 49.8535 -2.88086 Z"/>
  </g>
  <g id="Light-L" transform="matrix(1 0 0 1 1079.18 1556)">
   <path d="M 73.9258 27.5879 C 108.301 27.5879 136.621 -0.732422 136.621 -35.1074 C 136.621 -69.4336 108.252 -97.7539 73.9258 -97.7539 C 39.5508 -97.7539 11.2793 -69.4336 11.2793 -35.1074 C 11.2793 -0.732422 39.5996 27.5879 73.9258 27.5879 Z M 48.877 -2.83203 C 47.7051 -2.83203 46.875 -3.66211 46.875 -4.93164 C 46.875 -5.41992 47.0215 -5.9082 47.2168 -6.44531 L 71.3379 -69.0918 C 71.9238 -70.5566 72.7539 -71.2402 73.9746 -71.2402 C 75.1465 -71.2402 76.0254 -70.5566 76.5625 -69.0918 L 100.684 -6.44531 C 100.928 -5.9082 101.025 -5.41992 101.025 -4.93164 C 101.025 -3.66211 100.244 -2.83203 99.0723 -2.83203 C 98.4375 -2.83203 97.8027 -3.07617 97.3145 -3.56445 L 75.1953 -25.6836 C 74.7559 -26.123 74.3652 -26.3672 73.9746 -26.3672 C 73.584 -26.3672 73.1445 -26.123 72.7539 -25.6836 L 50.5371 -3.56445 C 50.0977 -3.07617 49.5117 -2.83203 48.877 -2.83203 Z"/>
  </g>
  <g id="Thin-L" transform="matrix(1 0 0 1 783.693 1556)">
   <path d="M 72.7051 26.416 C 106.494 26.416 134.18 -1.26953 134.18 -35.0586 C 134.18 -68.7988 106.494 -96.4844 72.7051 -96.4844 C 38.9648 -96.4844 11.2793 -68.7988 11.2793 -35.0586 C 11.2793 -1.26953 38.9648 26.416 72.7051 26.416 Z M 47.5586 -2.7832 C 47.0215 -2.7832 46.582 -3.22266 46.582 -3.85742 C 46.582 -4.15039 46.6797 -4.39453 46.7773 -4.6875 L 71.5332 -69.8242 C 71.7773 -70.459 72.168 -70.8008 72.7051 -70.8008 C 73.291 -70.8008 73.6816 -70.459 73.9258 -69.8242 L 98.6816 -4.6875 C 98.7793 -4.39453 98.877 -4.15039 98.877 -3.85742 C 98.877 -3.22266 98.4375 -2.7832 97.9004 -2.7832 C 97.5098 -2.7832 97.168 -2.97852 96.8262 -3.32031 L 73.7305 -26.3184 C 73.3887 -26.6602 73.0469 -26.8555 72.7051 -26.8555 C 72.3633 -26.8555 72.0703 -26.6602 71.7285 -26.3184 L 48.6328 -3.32031 C 48.291 -2.97852 47.9492 -2.7832 47.5586 -2.7832 Z"/>
  </g>
  <g id="Ultralight-L" transform="matrix(1 0 0 1 487.616 1556)">
   <path d="M 72.1191 25.7812 C 105.566 25.7812 132.91 -1.5625 132.91 -35.0098 C 132.91 -68.5059 105.566 -95.8496 72.1191 -95.8496 C 38.623 -95.8496 11.2793 -68.5059 11.2793 -35.0098 C 11.2793 -1.5625 38.623 25.7812 72.1191 25.7812 Z M 46.9238 -2.7832 C 46.6797 -2.7832 46.4355 -2.97852 46.4355 -3.32031 C 46.4355 -3.51562 46.4844 -3.61328 46.5332 -3.80859 L 71.6309 -70.166 C 71.7285 -70.4102 71.8262 -70.5566 72.0703 -70.5566 C 72.3633 -70.5566 72.4609 -70.4102 72.5586 -70.166 L 97.6074 -3.80859 C 97.7051 -3.61328 97.7539 -3.51562 97.7539 -3.32031 C 97.7539 -2.97852 97.5098 -2.7832 97.2656 -2.7832 C 97.0215 -2.7832 96.8262 -2.92969 96.582 -3.22266 L 72.998 -26.6602 C 72.7051 -26.9531 72.4121 -27.0996 72.0703 -27.0996 C 71.7773 -27.0996 71.4844 -26.9531 71.1914 -26.6602 L 47.6562 -3.22266 C 47.3633 -2.92969 47.168 -2.7832 46.9238 -2.7832 Z"/>
  </g>
  <g id="Black-M" transform="matrix(1 0 0 1 2870.97 1126)">
   <path d="M 62.4023 18.5547 C 91.9922 18.5547 116.113 -5.56641 116.113 -35.1562 C 116.113 -64.7461 91.9922 -88.8184 62.4023 -88.8184 C 32.8125 -88.8184 8.74023 -64.7461 8.74023 -35.1562 C 8.74023 -5.56641 32.8125 18.5547 62.4023 18.5547 Z M 44.1895 -9.96094 C 41.6016 -9.96094 39.5508 -11.7676 39.5508 -14.7949 C 39.5508 -15.7227 39.7949 -16.9434 40.2832 -18.2617 L 56.3965 -59.082 C 57.7148 -62.3535 59.7656 -64.0625 62.4023 -64.0625 C 65.0391 -64.0625 67.1387 -62.3535 68.457 -59.082 L 84.5215 -18.2617 C 85.0586 -16.9434 85.3027 -15.7227 85.3027 -14.7949 C 85.3027 -11.7676 83.2031 -9.96094 80.6641 -9.96094 C 79.1992 -9.96094 77.4902 -10.6445 75.7812 -12.4023 L 63.7207 -24.4141 C 63.2812 -24.9023 62.8418 -25.0977 62.4023 -25.0977 C 61.9629 -25.0977 61.5234 -24.9023 61.084 -24.4141 L 49.0234 -12.4023 C 47.3145 -10.6445 45.6055 -9.96094 44.1895 -9.96094 Z"/>
  </g>
  <g id="Heavy-M" transform="matrix(1 0 0 1 2575.19 1126)">
   <path d="M 61.5234 17.627 C 90.5273 17.627 114.258 -6.10352 114.258 -35.1562 C 114.258 -64.1602 90.5273 -87.8906 61.4746 -87.8906 C 32.4707 -87.8906 8.74023 -64.1602 8.74023 -35.1562 C 8.74023 -6.10352 32.4707 17.627 61.5234 17.627 Z M 43.0176 -10.0098 C 40.6738 -10.0098 38.8672 -11.6211 38.8672 -14.3066 C 38.8672 -15.1855 39.0625 -16.2598 39.502 -17.3828 L 56.1035 -59.4727 C 57.2754 -62.4512 59.1309 -63.9648 61.5234 -63.9648 C 63.8672 -63.9648 65.7227 -62.4512 66.9434 -59.4727 L 83.4961 -17.3828 C 83.9355 -16.2598 84.1797 -15.1855 84.1797 -14.3066 C 84.1797 -11.6211 82.3242 -10.0098 80.0293 -10.0098 C 78.7109 -10.0098 77.2461 -10.5957 75.8301 -12.0605 L 62.793 -25.0977 C 62.3535 -25.5859 61.9141 -25.7324 61.5234 -25.7324 C 61.084 -25.7324 60.6445 -25.5859 60.2539 -25.0977 L 47.168 -12.0605 C 45.752 -10.5957 44.2871 -10.0098 43.0176 -10.0098 Z"/>
  </g>
  <g id="Bold-M" transform="matrix(1 0 0 1 2279.5 1126)">
   <path d="M 60.498 16.6016 C 88.8672 16.6016 112.207 -6.73828 112.207 -35.1562 C 112.207 -63.5742 88.8672 -86.9141 60.4492 -86.9141 C 32.0312 -86.9141 8.74023 -63.5742 8.74023 -35.1562 C 8.74023 -6.73828 32.0801 16.6016 60.498 16.6016 Z M 41.6992 -10.0586 C 39.6484 -10.0586 38.0859 -11.4746 38.0859 -13.8184 C 38.0859 -14.5996 38.2812 -15.4785 38.6719 -16.4551 L 55.7617 -59.9121 C 56.7871 -62.5488 58.3984 -63.8184 60.498 -63.8184 C 62.5977 -63.8184 64.209 -62.5488 65.2344 -59.9121 L 82.3242 -16.4551 C 82.7148 -15.4785 82.9102 -14.5996 82.9102 -13.8184 C 82.9102 -11.4746 81.3477 -10.0586 79.2969 -10.0586 C 78.2227 -10.0586 76.9531 -10.5469 75.8789 -11.6699 L 61.7188 -25.8301 C 61.2793 -26.2695 60.8887 -26.4648 60.498 -26.4648 C 60.1074 -26.4648 59.668 -26.2695 59.2773 -25.8301 L 45.0684 -11.6699 C 43.9941 -10.5469 42.7734 -10.0586 41.6992 -10.0586 Z"/>
  </g>
  <g id="Semibold-M" transform="matrix(1 0 0 1 1983.5 1126)">
   <path d="M 59.7656 15.8691 C 87.7441 15.8691 110.791 -7.17773 110.791 -35.1562 C 110.791 -63.1348 87.6953 -86.1816 59.7656 -86.1816 C 31.7871 -86.1816 8.74023 -63.1348 8.74023 -35.1562 C 8.74023 -7.17773 31.7871 15.8691 59.7656 15.8691 Z M 40.7715 -10.1074 C 38.916 -10.1074 37.5488 -11.377 37.5488 -13.4277 C 37.5488 -14.1602 37.7441 -14.9414 38.0859 -15.8203 L 55.5176 -60.2539 C 56.4453 -62.5977 57.9102 -63.7695 59.8145 -63.7695 C 61.6699 -63.7695 63.1348 -62.5977 64.0625 -60.2539 L 81.4941 -15.8203 C 81.8359 -14.9414 82.0312 -14.1602 82.0312 -13.4277 C 82.0312 -11.377 80.6641 -10.1074 78.8086 -10.1074 C 77.832 -10.1074 76.7578 -10.498 75.8789 -11.4258 L 60.9863 -26.3184 C 60.5469 -26.7578 60.2051 -27.002 59.8145 -27.002 C 59.4238 -27.002 58.9844 -26.7578 58.5938 -26.3184 L 43.6523 -11.4258 C 42.7734 -10.498 41.748 -10.1074 40.7715 -10.1074 Z"/>
  </g>
  <g id="Medium-M" transform="matrix(1 0 0 1 1687.3 1126)">
   <path d="M 59.2285 15.332 C 86.9141 15.332 109.766 -7.51953 109.766 -35.1562 C 109.766 -62.793 86.8652 -85.6445 59.1797 -85.6445 C 31.543 -85.6445 8.74023 -62.793 8.74023 -35.1562 C 8.74023 -7.51953 31.5918 15.332 59.2285 15.332 Z M 40.0879 -10.1562 C 38.3789 -10.1562 37.1582 -11.3281 37.1582 -13.1836 C 37.1582 -13.8672 37.3047 -14.5508 37.6465 -15.332 L 55.3223 -60.4492 C 56.2012 -62.6465 57.5195 -63.6719 59.2773 -63.6719 C 61.0352 -63.6719 62.3535 -62.6465 63.1836 -60.4492 L 80.9082 -15.332 C 81.2012 -14.5508 81.3965 -13.8672 81.3965 -13.1836 C 81.3965 -11.3281 80.1758 -10.1562 78.418 -10.1562 C 77.5879 -10.1562 76.6602 -10.498 75.9277 -11.2305 L 60.4492 -26.709 C 60.0098 -27.1484 59.668 -27.3926 59.2773 -27.3926 C 58.8867 -27.3926 58.4961 -27.1484 58.0566 -26.709 L 42.5781 -11.2305 C 41.8457 -10.498 40.9668 -10.1562 40.0879 -10.1562 Z"/>
  </g>
  <g id="Regular-M" transform="matrix(1 0 0 1 1391.3 1126)">
   <path d="M 58.5449 14.6484 C 85.791 14.6484 108.35 -7.95898 108.35 -35.1562 C 108.35 -62.4023 85.7422 -84.9609 58.4961 -84.9609 C 31.2988 -84.9609 8.74023 -62.4023 8.74023 -35.1562 C 8.74023 -7.95898 31.3477 14.6484 58.5449 14.6484 Z M 39.209 -10.1562 C 37.6465 -10.1562 36.6211 -11.2305 36.6211 -12.793 C 36.6211 -13.4277 36.7676 -14.0625 37.0605 -14.6484 L 55.0781 -60.791 C 55.8594 -62.6953 57.0312 -63.623 58.5938 -63.623 C 60.1074 -63.623 61.2793 -62.6953 62.0117 -60.791 L 80.0781 -14.6484 C 80.3711 -14.0625 80.5176 -13.4277 80.5176 -12.793 C 80.5176 -11.2305 79.4922 -10.1562 77.9785 -10.1562 C 77.1973 -10.1562 76.4648 -10.4492 75.9766 -10.9375 L 59.7168 -27.1973 C 59.2773 -27.6367 58.9355 -27.8809 58.5938 -27.8809 C 58.2031 -27.8809 57.8125 -27.6367 57.4219 -27.1973 L 41.1621 -10.9375 C 40.625 -10.4492 39.9414 -10.1562 39.209 -10.1562 Z"/>
  </g>
  <g id="Light-M" transform="matrix(1 0 0 1 1095.42 1126)">
   <path d="M 57.7148 13.8184 C 84.5215 13.8184 106.689 -8.30078 106.689 -35.1562 C 106.689 -61.9629 84.5215 -84.1309 57.666 -84.1309 C 30.8594 -84.1309 8.74023 -61.9629 8.74023 -35.1562 C 8.74023 -8.30078 30.9082 13.8184 57.7148 13.8184 Z M 38.3301 -10.1562 C 37.207 -10.1562 36.4258 -10.8887 36.4258 -12.1094 C 36.4258 -12.5488 36.5723 -13.0371 36.7188 -13.4766 L 55.2246 -61.2305 C 55.7617 -62.6465 56.5918 -63.2812 57.7637 -63.2812 C 58.8867 -63.2812 59.7168 -62.6465 60.2051 -61.2305 L 78.7109 -13.4766 C 78.9062 -13.0371 79.0527 -12.5488 79.0527 -12.1094 C 79.0527 -10.8887 78.2715 -10.1562 77.1484 -10.1562 C 76.6113 -10.1562 76.0254 -10.3516 75.5859 -10.791 L 58.7402 -27.6367 C 58.3984 -28.0273 58.0566 -28.1738 57.7637 -28.1738 C 57.4219 -28.1738 57.0801 -28.0273 56.6895 -27.6367 L 39.8438 -10.791 C 39.4043 -10.3516 38.8672 -10.1562 38.3301 -10.1562 Z"/>
  </g>
  <g id="Thin-M" transform="matrix(1 0 0 1 799.806 1126)">
   <path d="M 56.6406 12.793 C 82.9102 12.793 104.492 -8.78906 104.492 -35.1074 C 104.492 -61.377 82.9102 -82.959 56.5918 -82.959 C 30.3223 -82.959 8.74023 -61.377 8.74023 -35.1074 C 8.74023 -8.78906 30.3223 12.793 56.6406 12.793 Z M 37.1582 -10.1074 C 36.5723 -10.1074 36.1816 -10.498 36.1816 -11.1328 C 36.1816 -11.4258 36.2305 -11.6699 36.3281 -11.9141 L 55.4199 -61.8652 C 55.6641 -62.5488 56.0547 -62.8906 56.6406 -62.8906 C 57.1777 -62.8906 57.6172 -62.5488 57.8613 -61.8652 L 76.9043 -11.9141 C 77.002 -11.6699 77.0996 -11.4258 77.0996 -11.1328 C 77.0996 -10.498 76.6602 -10.1074 76.123 -10.1074 C 75.7324 -10.1074 75.4395 -10.2539 75.1465 -10.5469 L 57.4707 -28.2227 C 57.1777 -28.4668 56.8848 -28.6133 56.6406 -28.6133 C 56.3477 -28.6133 56.0547 -28.4668 55.8105 -28.2227 L 38.0859 -10.5469 C 37.793 -10.2539 37.5 -10.1074 37.1582 -10.1074 Z"/>
  </g>
  <g id="Ultralight-M" transform="matrix(1 0 0 1 503.656 1126)">
   <path d="M 56.0547 12.2559 C 82.0801 12.2559 103.369 -9.0332 103.369 -35.0586 C 103.369 -61.084 82.0801 -82.373 56.0547 -82.373 C 30.0293 -82.373 8.74023 -61.084 8.74023 -35.0586 C 8.74023 -9.0332 30.0293 12.2559 56.0547 12.2559 Z M 36.5723 -10.0586 C 36.2793 -10.0586 36.0352 -10.3027 36.0352 -10.6445 C 36.0352 -10.8398 36.084 -10.9375 36.1328 -11.1328 L 55.4688 -62.207 C 55.6152 -62.5 55.7617 -62.6465 56.0547 -62.6465 C 56.3477 -62.6465 56.4941 -62.5 56.6406 -62.207 L 75.9766 -11.1328 C 76.0254 -10.9375 76.0742 -10.8398 76.0742 -10.6445 C 76.0742 -10.3027 75.8789 -10.0586 75.5859 -10.0586 C 75.3418 -10.0586 75.1465 -10.2051 74.9023 -10.4492 L 56.7871 -28.4668 C 56.543 -28.7598 56.2988 -28.8574 56.0547 -28.8574 C 55.8105 -28.8574 55.5664 -28.7598 55.3223 -28.4668 L 37.207 -10.4492 C 36.9629 -10.2051 36.7676 -10.0586 36.5723 -10.0586 Z"/>
  </g>
  <g id="Black-S" transform="matrix(1 0 0 1 2884.57 696)">
   <path d="M 48.8281 6.83594 C 71.9727 6.83594 90.8203 -12.0117 90.8203 -35.1562 C 90.8203 -58.3008 71.9727 -77.1484 48.8281 -77.1484 C 25.6836 -77.1484 6.83594 -58.3008 6.83594 -35.1562 C 6.83594 -12.0117 25.6836 6.83594 48.8281 6.83594 Z M 34.5215 -15.4297 C 32.5195 -15.4297 30.9082 -16.8457 30.9082 -19.1895 C 30.9082 -19.9219 31.1035 -20.8496 31.4941 -21.875 L 44.1406 -53.9551 C 45.166 -56.4941 46.7773 -57.8125 48.8281 -57.8125 C 50.8789 -57.8125 52.4902 -56.4941 53.5156 -53.9551 L 66.1621 -21.875 C 66.5527 -20.8496 66.748 -19.9219 66.748 -19.1895 C 66.748 -16.8457 65.1367 -15.4297 63.1348 -15.4297 C 62.0117 -15.4297 60.6934 -15.9668 59.375 -17.334 L 49.8535 -26.8066 C 49.5117 -27.1973 49.1699 -27.3438 48.8281 -27.3438 C 48.4863 -27.3438 48.1445 -27.1973 47.8027 -26.8066 L 38.2812 -17.334 C 36.9629 -15.9668 35.6445 -15.4297 34.5215 -15.4297 Z"/>
  </g>
  <g id="Heavy-S" transform="matrix(1 0 0 1 2588.47 696)">
   <path d="M 48.2422 6.20117 C 70.9961 6.20117 89.5996 -12.4023 89.5996 -35.1562 C 89.5996 -57.9102 70.9961 -76.5625 48.1934 -76.5625 C 25.4395 -76.5625 6.83594 -57.9102 6.83594 -35.1562 C 6.83594 -12.4023 25.4395 6.20117 48.2422 6.20117 Z M 33.7402 -15.4785 C 31.8359 -15.4785 30.4199 -16.7969 30.4199 -18.8965 C 30.4199 -19.5801 30.5664 -20.459 30.957 -21.3379 L 43.8965 -54.1992 C 44.8242 -56.543 46.3379 -57.7637 48.2422 -57.7637 C 50.1465 -57.7637 51.6113 -56.543 52.5391 -54.1992 L 65.5273 -21.3379 C 65.8691 -20.459 66.0645 -19.5801 66.0645 -18.8965 C 66.0645 -16.7969 64.5996 -15.4785 62.7441 -15.4785 C 61.7188 -15.4785 60.5469 -15.918 59.4238 -17.0898 L 49.2188 -27.2461 C 48.877 -27.6367 48.584 -27.7832 48.2422 -27.7832 C 47.9004 -27.7832 47.5586 -27.6367 47.2168 -27.2461 L 37.0117 -17.0898 C 35.8887 -15.918 34.7168 -15.4785 33.7402 -15.4785 Z"/>
  </g>
  <g id="Bold-S" transform="matrix(1 0 0 1 2292.44 696)">
   <path d="M 47.5586 5.51758 C 69.873 5.51758 88.2324 -12.8418 88.2324 -35.1562 C 88.2324 -57.5195 69.873 -75.8789 47.5098 -75.8789 C 25.1953 -75.8789 6.83594 -57.5195 6.83594 -35.1562 C 6.83594 -12.8418 25.1953 5.51758 47.5586 5.51758 Z M 32.8125 -15.5273 C 31.1035 -15.5273 29.834 -16.6992 29.834 -18.6035 C 29.834 -19.2383 30.0293 -19.9707 30.3223 -20.8008 L 43.6035 -54.4922 C 44.4824 -56.6406 45.8008 -57.7148 47.5586 -57.7148 C 49.3164 -57.7148 50.6348 -56.6406 51.4648 -54.4922 L 64.7949 -20.8008 C 65.0879 -19.9707 65.2832 -19.2383 65.2832 -18.6035 C 65.2832 -16.6992 64.0137 -15.5273 62.3047 -15.5273 C 61.4258 -15.5273 60.4004 -15.918 59.5215 -16.7969 L 48.5352 -27.7832 C 48.1934 -28.1738 47.9004 -28.3203 47.5586 -28.3203 C 47.2168 -28.3203 46.875 -28.1738 46.5332 -27.7832 L 35.5469 -16.7969 C 34.7168 -15.918 33.6914 -15.5273 32.8125 -15.5273 Z"/>
  </g>
  <g id="Semibold-S" transform="matrix(1 0 0 1 1996.2 696)">
   <path d="M 47.0703 5.0293 C 69.0918 5.0293 87.3047 -13.1348 87.3047 -35.2051 C 87.3047 -57.2266 69.0918 -75.4395 47.0215 -75.4395 C 25 -75.4395 6.83594 -57.2266 6.83594 -35.2051 C 6.83594 -13.1348 25.0488 5.0293 47.0703 5.0293 Z M 32.1777 -15.5762 C 30.6152 -15.5762 29.4434 -16.6504 29.4434 -18.3594 C 29.4434 -18.9941 29.5898 -19.6777 29.8828 -20.3613 L 43.4082 -54.6875 C 44.2383 -56.6895 45.459 -57.666 47.1191 -57.666 C 48.7305 -57.666 49.9512 -56.6895 50.7324 -54.6875 L 64.3066 -20.3613 C 64.5508 -19.6777 64.7461 -18.9941 64.7461 -18.3594 C 64.7461 -16.6504 63.5742 -15.5762 61.9629 -15.5762 C 61.1816 -15.5762 60.3027 -15.8691 59.5703 -16.6016 L 48.0957 -28.125 C 47.7051 -28.5156 47.4121 -28.6621 47.1191 -28.6621 C 46.7773 -28.6621 46.4355 -28.5156 46.0938 -28.125 L 34.5703 -16.6016 C 33.8867 -15.8691 33.0078 -15.5762 32.1777 -15.5762 Z"/>
  </g>
  <g id="Medium-S" transform="matrix(1 0 0 1 1699.83 696)">
   <path d="M 46.7285 4.6875 C 68.5547 4.6875 86.6211 -13.3789 86.6211 -35.2051 C 86.6211 -56.9824 68.5059 -75.0977 46.6797 -75.0977 C 24.8535 -75.0977 6.83594 -56.9824 6.83594 -35.2051 C 6.83594 -13.3789 24.9023 4.6875 46.7285 4.6875 Z M 31.7383 -15.5762 C 30.2246 -15.5762 29.1504 -16.6016 29.1504 -18.2129 C 29.1504 -18.7988 29.2969 -19.4336 29.5898 -20.0684 L 43.2617 -54.834 C 44.043 -56.7383 45.2148 -57.666 46.7773 -57.666 C 48.291 -57.666 49.4629 -56.7383 50.1465 -54.834 L 63.916 -20.0684 C 64.1602 -19.4336 64.3066 -18.7988 64.3066 -18.2129 C 64.3066 -16.6016 63.2812 -15.5762 61.7676 -15.5762 C 61.0352 -15.5762 60.2051 -15.8691 59.6191 -16.4551 L 47.7051 -28.3691 C 47.3633 -28.7598 47.0703 -28.9551 46.7773 -28.9551 C 46.4355 -28.9551 46.0938 -28.7598 45.752 -28.3691 L 33.8379 -16.4551 C 33.252 -15.8691 32.4707 -15.5762 31.7383 -15.5762 Z"/>
  </g>
  <g id="Regular-S" transform="matrix(1 0 0 1 1403.58 696)">
   <path d="M 46.2402 4.19922 C 67.7734 4.19922 85.6934 -13.6719 85.6934 -35.2051 C 85.6934 -56.7383 67.7246 -74.6094 46.1914 -74.6094 C 24.707 -74.6094 6.83594 -56.7383 6.83594 -35.2051 C 6.83594 -13.6719 24.7559 4.19922 46.2402 4.19922 Z M 31.1035 -15.625 C 29.7363 -15.625 28.7598 -16.5527 28.7598 -18.0176 C 28.7598 -18.5547 28.9062 -19.1406 29.1504 -19.6777 L 43.0664 -55.0293 C 43.7988 -56.7871 44.873 -57.6172 46.2891 -57.6172 C 47.7051 -57.6172 48.7793 -56.7871 49.4141 -55.0293 L 63.4277 -19.6777 C 63.623 -19.1406 63.7695 -18.5547 63.7695 -18.0176 C 63.7695 -16.5527 62.8418 -15.625 61.4258 -15.625 C 60.791 -15.625 60.1074 -15.8691 59.668 -16.2598 L 47.2656 -28.7109 C 46.875 -29.1016 46.582 -29.2969 46.2891 -29.2969 C 45.9473 -29.2969 45.6543 -29.1016 45.3125 -28.7109 L 32.8613 -16.2598 C 32.4219 -15.8691 31.7871 -15.625 31.1035 -15.625 Z"/>
  </g>
  <g id="Light-S" transform="matrix(1 0 0 1 1107.6 696)">
   <path d="M 45.5078 3.51562 C 66.6992 3.51562 84.2285 -14.0137 84.2285 -35.1562 C 84.2285 -56.3477 66.6504 -73.877 45.5078 -73.877 C 24.3164 -73.877 6.83594 -56.3477 6.83594 -35.1562 C 6.83594 -14.0137 24.3652 3.51562 45.5078 3.51562 Z M 30.3223 -15.5762 C 29.2969 -15.5762 28.6133 -16.3086 28.6133 -17.3828 C 28.6133 -17.8223 28.7109 -18.2129 28.9062 -18.6523 L 43.2129 -55.4199 C 43.7012 -56.7383 44.4824 -57.3242 45.5566 -57.3242 C 46.582 -57.3242 47.3633 -56.7383 47.8516 -55.4199 L 62.207 -18.6523 C 62.3535 -18.2129 62.5 -17.8223 62.5 -17.3828 C 62.5 -16.3086 61.7676 -15.5762 60.7422 -15.5762 C 60.2539 -15.5762 59.7168 -15.7715 59.375 -16.1133 L 46.3867 -29.1016 C 46.0938 -29.4434 45.8008 -29.5898 45.5566 -29.5898 C 45.2637 -29.5898 44.9707 -29.4434 44.6777 -29.1016 L 31.6895 -16.1133 C 31.3477 -15.7715 30.8594 -15.5762 30.3223 -15.5762 Z"/>
  </g>
  <g id="Thin-S" transform="matrix(1 0 0 1 811.867 696)">
   <path d="M 44.5801 2.58789 C 65.2832 2.58789 82.2754 -14.4043 82.2754 -35.1562 C 82.2754 -55.8594 65.2344 -72.8516 44.5312 -72.8516 C 23.8281 -72.8516 6.83594 -55.8594 6.83594 -35.1562 C 6.83594 -14.4043 23.877 2.58789 44.5801 2.58789 Z M 29.2969 -15.5762 C 28.7598 -15.5762 28.3691 -15.9668 28.3691 -16.5527 C 28.3691 -16.7969 28.4668 -17.041 28.5645 -17.2852 L 43.3594 -56.0059 C 43.6035 -56.6406 43.9941 -56.9824 44.5801 -56.9824 C 45.1172 -56.9824 45.5078 -56.6406 45.752 -56.0059 L 60.5957 -17.2852 C 60.6934 -17.041 60.7422 -16.7969 60.7422 -16.5527 C 60.7422 -15.9668 60.3516 -15.5762 59.8145 -15.5762 C 59.5215 -15.5762 59.2285 -15.6738 58.9355 -15.9668 L 45.2637 -29.5898 C 45.0195 -29.834 44.7754 -29.9805 44.5801 -29.9805 C 44.3359 -29.9805 44.0918 -29.834 43.8965 -29.5898 L 30.1758 -15.9668 C 29.9316 -15.6738 29.6387 -15.5762 29.2969 -15.5762 Z"/>
  </g>
  <g id="Ultralight-S" transform="matrix(1 0 0 1 515.644 696)">
   <path d="M 44.043 2.09961 C 64.502 2.09961 81.2988 -14.6484 81.2988 -35.1074 C 81.2988 -55.5664 64.502 -72.3145 44.043 -72.3145 C 23.584 -72.3145 6.83594 -55.5664 6.83594 -35.1074 C 6.83594 -14.6484 23.584 2.09961 44.043 2.09961 Z M 28.7598 -15.5273 C 28.4668 -15.5273 28.2715 -15.7715 28.2715 -16.1133 C 28.2715 -16.2598 28.3203 -16.4062 28.3691 -16.5527 L 43.457 -56.2988 C 43.5547 -56.5918 43.75 -56.7871 44.043 -56.7871 C 44.3848 -56.7871 44.5312 -56.5918 44.6777 -56.2988 L 59.7656 -16.5527 C 59.8145 -16.4062 59.8633 -16.2598 59.8633 -16.1133 C 59.8633 -15.7715 59.6191 -15.5273 59.3262 -15.5273 C 59.1309 -15.5273 58.9355 -15.625 58.7402 -15.8203 L 44.6777 -29.8828 C 44.4824 -30.0781 44.2383 -30.1758 44.043 -30.1758 C 43.8477 -30.1758 43.6523 -30.0781 43.457 -29.8828 L 29.3945 -15.8203 C 29.1504 -15.625 29.0039 -15.5273 28.7598 -15.5273 Z"/>
  </g>
 </g>
</svg>
